<svg viewBox="0 0 32 32" fill="currentColor" stroke="currentColor" xmlns="http://www.w3.org/2000/svg">
<path d="M8.01623 18.4969C8.01963 18.5647 8.0092 18.6324 7.9856 18.6959C7.96199 18.7595 7.9257 18.8176 7.87893 18.8667C7.83216 18.9159 7.77588 18.9549 7.71353 18.9816C7.65118 19.0083 7.58405 19.022 7.51623 19.0219H2.00123C1.77553 19.0223 1.55635 18.9462 1.37933 18.8062C1.20231 18.6662 1.07786 18.4704 1.02623 18.2507C0.994086 18.1003 0.995568 17.9446 1.03057 17.7949C1.06558 17.6451 1.13325 17.505 1.22873 17.3844C2.111 16.2144 3.2816 15.2932 4.62623 14.7107C4.03589 14.1724 3.58312 13.5006 3.30583 12.7513C3.02854 12.0021 2.93482 11.1974 3.0325 10.4045C3.13019 9.6116 3.41644 8.85366 3.86728 8.19415C4.31813 7.53464 4.92044 6.99276 5.62377 6.6139C6.3271 6.23503 7.11098 6.03021 7.90974 6.0166C8.70851 6.00298 9.49891 6.18095 10.2148 6.53562C10.9306 6.89029 11.551 7.41132 12.0241 8.05508C12.4972 8.69883 12.8091 9.44657 12.9337 10.2357C12.9498 10.3418 12.9308 10.4503 12.8796 10.5446C12.8284 10.6389 12.7478 10.7139 12.65 10.7582C11.263 11.3994 10.0883 12.424 9.26462 13.711C8.44092 14.9981 8.00255 16.4939 8.00123 18.0219C8.00123 18.1819 8.00124 18.3394 8.01623 18.4969ZM30.7662 17.3832C29.886 16.2145 28.7181 15.2938 27.3762 14.7107C27.9666 14.1724 28.4194 13.5006 28.6966 12.7513C28.9739 12.0021 29.0677 11.1974 28.97 10.4045C28.8723 9.6116 28.586 8.85366 28.1352 8.19415C27.6843 7.53464 27.082 6.99276 26.3787 6.6139C25.6754 6.23503 24.8915 6.03021 24.0927 6.0166C23.294 6.00298 22.5036 6.18095 21.7877 6.53562C21.0719 6.89029 20.4514 7.41132 19.9784 8.05508C19.5053 8.69883 19.1934 9.44657 19.0687 10.2357C19.0526 10.3418 19.0716 10.4503 19.1229 10.5446C19.1741 10.6389 19.2547 10.7139 19.3525 10.7582C20.7395 11.3994 21.9142 12.424 22.7379 13.711C23.5616 14.9981 23.9999 16.4939 24.0012 18.0219C24.0012 18.1819 24.0012 18.3394 23.9862 18.4969C23.9828 18.5647 23.9933 18.6324 24.0169 18.6959C24.0405 18.7595 24.0768 18.8176 24.1235 18.8667C24.1703 18.9159 24.2266 18.9549 24.2889 18.9816C24.3513 19.0083 24.4184 19.022 24.4862 19.0219H30.0012C30.2269 19.0223 30.4461 18.9462 30.6231 18.8062C30.8002 18.6662 30.9246 18.4704 30.9762 18.2507C31.0086 18.1 31.0071 17.944 30.9718 17.794C30.9366 17.644 30.8685 17.5037 30.7725 17.3832H30.7662ZM19.6412 22.7807C20.6369 22.0181 21.3686 20.9627 21.7335 19.7629C22.0984 18.563 22.0782 17.2789 21.6756 16.0912C21.273 14.9034 20.5084 13.8716 19.4891 13.1409C18.4699 12.4101 17.2472 12.0171 15.9931 12.0171C14.739 12.0171 13.5164 12.4101 12.4971 13.1409C11.4779 13.8716 10.7132 14.9034 10.3106 16.0912C9.90805 17.2789 9.88779 18.563 10.2527 19.7629C10.6176 20.9627 11.3493 22.0181 12.345 22.7807C10.5782 23.5462 9.10282 24.8573 8.13498 26.5219C8.04721 26.674 8.001 26.8464 8.00101 27.022C8.00102 27.1975 8.04725 27.37 8.13504 27.522C8.22284 27.674 8.3491 27.8003 8.50116 27.888C8.65321 27.9758 8.82568 28.022 9.00123 28.0219H23.0012C23.1768 28.022 23.3493 27.9758 23.5013 27.888C23.6534 27.8003 23.7796 27.674 23.8674 27.522C23.9552 27.37 24.0014 27.1975 24.0015 27.022C24.0015 26.8464 23.9553 26.674 23.8675 26.5219C22.8976 24.8562 21.4195 23.545 19.65 22.7807H19.6412Z"/>
</svg>
