<svg viewBox="0 0 32 32" fill="currentColor" stroke="currentColor" xmlns="http://www.w3.org/2000/svg">
<path d="M25.9998 4H5.99976C5.46932 4 4.96061 4.21071 4.58554 4.58579C4.21047 4.96086 3.99976 5.46957 3.99976 6V26C3.99976 26.5304 4.21047 27.0391 4.58554 27.4142C4.96061 27.7893 5.46932 28 5.99976 28H25.9998C26.5302 28 27.0389 27.7893 27.414 27.4142C27.789 27.0391 27.9998 26.5304 27.9998 26V6C27.9998 5.46957 27.789 4.96086 27.414 4.58579C27.0389 4.21071 26.5302 4 25.9998 4ZM14.7073 18.7075L10.7073 22.7075C10.6144 22.8005 10.5041 22.8742 10.3827 22.9246C10.2613 22.9749 10.1312 23.0008 9.99976 23.0008C9.86834 23.0008 9.73821 22.9749 9.61682 22.9246C9.49542 22.8742 9.38513 22.8005 9.29226 22.7075L7.29226 20.7075C7.10462 20.5199 6.9992 20.2654 6.9992 20C6.9992 19.7346 7.10462 19.4801 7.29226 19.2925C7.4799 19.1049 7.73439 18.9994 7.99976 18.9994C8.26512 18.9994 8.51962 19.1049 8.70726 19.2925L9.99976 20.5863L13.2923 17.2925C13.4799 17.1049 13.7344 16.9994 13.9998 16.9994C14.2651 16.9994 14.5196 17.1049 14.7073 17.2925C14.8949 17.4801 15.0003 17.7346 15.0003 18C15.0003 18.2654 14.8949 18.5199 14.7073 18.7075ZM14.7073 10.7075L10.7073 14.7075C10.6144 14.8005 10.5041 14.8742 10.3827 14.9246C10.2613 14.9749 10.1312 15.0008 9.99976 15.0008C9.86834 15.0008 9.73821 14.9749 9.61682 14.9246C9.49542 14.8742 9.38513 14.8005 9.29226 14.7075L7.29226 12.7075C7.19935 12.6146 7.12565 12.5043 7.07536 12.3829C7.02508 12.2615 6.9992 12.1314 6.9992 12C6.9992 11.7346 7.10462 11.4801 7.29226 11.2925C7.4799 11.1049 7.73439 10.9994 7.99976 10.9994C8.26512 10.9994 8.51962 11.1049 8.70726 11.2925L9.99976 12.5863L13.2923 9.2925C13.4799 9.10486 13.7344 8.99944 13.9998 8.99944C14.2651 8.99944 14.5196 9.10486 14.7073 9.2925C14.8949 9.48014 15.0003 9.73464 15.0003 10C15.0003 10.2654 14.8949 10.5199 14.7073 10.7075ZM23.9998 21H17.9998C17.7345 21 17.4802 20.8946 17.2926 20.7071C17.1051 20.5196 16.9998 20.2652 16.9998 20C16.9998 19.7348 17.1051 19.4804 17.2926 19.2929C17.4802 19.1054 17.7345 19 17.9998 19H23.9998C24.265 19 24.5193 19.1054 24.7069 19.2929C24.8944 19.4804 24.9998 19.7348 24.9998 20C24.9998 20.2652 24.8944 20.5196 24.7069 20.7071C24.5193 20.8946 24.265 21 23.9998 21ZM23.9998 13H17.9998C17.7345 13 17.4802 12.8946 17.2926 12.7071C17.1051 12.5196 16.9998 12.2652 16.9998 12C16.9998 11.7348 17.1051 11.4804 17.2926 11.2929C17.4802 11.1054 17.7345 11 17.9998 11H23.9998C24.265 11 24.5193 11.1054 24.7069 11.2929C24.8944 11.4804 24.9998 11.7348 24.9998 12C24.9998 12.2652 24.8944 12.5196 24.7069 12.7071C24.5193 12.8946 24.265 13 23.9998 13Z"/>
</svg>
