<svg viewBox="0 0 32 32" fill="currentColor" stroke="currentColor" xmlns="http://www.w3.org/2000/svg">
<path d="M12.4994 4.53491C12.4994 3.84268 12.7046 3.16599 13.0892 2.59042C13.4738 2.01485 14.0204 1.56624 14.66 1.30134C15.2995 1.03643 16.0033 0.967117 16.6822 1.10217C17.3611 1.23721 17.9848 1.57056 18.4742 2.06004C18.9637 2.54952 19.2971 3.17316 19.4321 3.8521C19.5672 4.53103 19.4979 5.23476 19.2329 5.87431C18.968 6.51385 18.5194 7.06047 17.9439 7.44506C17.3683 7.82964 16.6916 8.03491 15.9994 8.03491C15.0711 8.03491 14.1809 7.66616 13.5245 7.00979C12.8681 6.35341 12.4994 5.46317 12.4994 4.53491ZM28.4494 11.6062C28.3583 11.1581 28.1136 10.756 27.7576 10.4691C27.4015 10.1822 26.9565 10.0287 26.4994 10.0349H5.49937C5.0434 10.0349 4.60111 10.1907 4.2458 10.4764C3.89049 10.7622 3.6435 11.1608 3.54576 11.6062C3.44802 12.0516 3.5054 12.517 3.70839 12.9253C3.91138 13.3336 4.24779 13.6602 4.66187 13.8512H4.66937L11.4056 16.8174L8.66562 27.2299C8.45652 27.7083 8.44275 28.2494 8.62727 28.7378C8.81178 29.2262 9.17994 29.6231 9.65312 29.8437C9.91758 29.9692 10.2066 30.0346 10.4994 30.0349C10.8764 30.0355 11.2459 29.9294 11.5653 29.7291C11.8846 29.5287 12.1408 29.2421 12.3044 28.9024L15.9994 22.5349L19.6969 28.9099C19.9268 29.3777 20.3304 29.7373 20.8216 29.912C21.3127 30.0866 21.8527 30.0627 22.3264 29.8451C22.8001 29.6275 23.1702 29.2336 23.3578 28.7472C23.5453 28.2609 23.5356 27.7205 23.3306 27.2412L20.5906 16.8287L27.3406 13.8587C27.7595 13.6719 28.0998 13.3444 28.3023 12.9329C28.5048 12.5214 28.5569 12.052 28.4494 11.6062Z"/>
</svg>
